# xmcd
#
# Track frame offsets: 
#        150
#        16814
#        32500
#        50191
#        64306
#        80465
#        94608
#        109744
#        125187
#        139035
#        150728
#        163537
#        175706
#        190527
#        208940
#        226558
#        242930
#        258477
#        275308
#        289454
#
# Disc length: 4072 seconds
#
# Revision: 2
# Processed by: cddbd v1.5.2PL0 Copyright (c) Steve Scherf et al.
# Submitted via: ExactAudioCopy v1.1
#
DISCID=190fe614
DTITLE=장윤정 (Jang Yoon Jeong) - 베스트 CD2 (Best CD 2)
DYEAR=2013
DGENRE=
TTITLE0=초혼 (First Marriage)
TTITLE1=천사랑 (First Love)
TTITLE2=애가타 (Lamentation)
TTITLE3=꽃 (Flower)
TTITLE4=목마른사슴 (Thirsty Deer)
TTITLE5=콩깍지 (Peapods)
TTITLE6=이따이따요 (Later, Later)
TTITLE7=오동도 블루스 (Paulownia's Blues)
TTITLE8=단념 (Give Up)
TTITLE9=눈물의 부르스 (Bruce's Tears)
TTITLE10=섬마을 선생님 (Island Village Teacher)
TTITLE11=수은등 (Vapor Lamp)
TTITLE12=몇미터 앞에다두고 (A Few Meters In Front of Me)
TTITLE13=곡예사의 첫사랑 (Acrobat's First Love)
TTITLE14=멍에 (Yoke)
TTITLE15=제발부탁이야 (I'm Begging Please)
TTITLE16=사랑밖엔난몰라 (I Only Know Love)
TTITLE17=꾸속의 사랑 (The Love of my Dreams)
TTITLE18=잊으리 (Forgotten)
TTITLE19=준비됐나요 (Are You Ready?)
EXTD=
EXTT0=
EXTT1=
EXTT2=
EXTT3=
EXTT4=
EXTT5=
EXTT6=
EXTT7=
EXTT8=
EXTT9=
EXTT10=
EXTT11=
EXTT12=
EXTT13=
EXTT14=
EXTT15=
EXTT16=
EXTT17=
EXTT18=
EXTT19=
PLAYORDER=
